<svg width="34" height="35" viewBox="0 0 34 35" fill="none" xmlns="http://www.w3.org/2000/svg">
<path d="M33.9916 8.13816C33.9903 8.1286 33.9887 8.11903 33.9872 8.10947C33.9815 8.07403 33.9742 8.03914 33.9647 8.00512C33.9633 7.99979 33.9622 7.99468 33.9608 7.98947C33.949 7.95001 33.9347 7.91164 33.9181 7.87458C33.9154 7.86827 33.9121 7.8623 33.9092 7.85599C33.8942 7.82393 33.8773 7.79284 33.8588 7.76295C33.8552 7.75686 33.8517 7.75078 33.8479 7.7448C33.8264 7.71154 33.8027 7.67969 33.7771 7.64947C33.7721 7.6436 33.7668 7.63806 33.7615 7.63219C33.739 7.60697 33.7153 7.58306 33.6903 7.56034C33.6839 7.55458 33.6778 7.5485 33.6713 7.54306C33.641 7.51697 33.609 7.49274 33.5756 7.47067C33.5703 7.4673 33.5649 7.46426 33.5597 7.461C33.5278 7.441 33.4947 7.42295 33.4605 7.40676C33.457 7.40513 33.4539 7.40284 33.4504 7.40121L17.387 0.0841538C17.1411 -0.0280513 16.8587 -0.0280513 16.6127 0.0841538L5.51363 5.14016C5.04248 5.35483 4.83399 5.91199 5.04781 6.38481C5.26152 6.85774 5.81693 7.06752 6.28798 6.85231L16.9999 1.97265L30.7663 8.24359L16.9999 14.3156L1.31348 7.39687C1.31236 7.39632 1.31123 7.3961 1.31011 7.39556C1.28713 7.38556 1.2634 7.37687 1.23954 7.36861C1.23354 7.36654 1.22754 7.36404 1.22155 7.36198C1.20194 7.35578 1.18171 7.35089 1.16159 7.34578C1.15098 7.34317 1.14036 7.33991 1.12962 7.33774C1.11676 7.33491 1.10352 7.33339 1.0904 7.33121C1.07216 7.32817 1.05393 7.3248 1.0357 7.32274C1.0272 7.32187 1.01834 7.32176 1.00971 7.32111C0.986857 7.31937 0.964131 7.31785 0.941394 7.31774C0.939773 7.31774 0.938269 7.31752 0.936648 7.31752C0.927776 7.31752 0.919159 7.31861 0.910414 7.31893C0.890184 7.31937 0.869953 7.32002 0.849968 7.32187C0.834355 7.32328 0.819115 7.32578 0.803748 7.32806C0.789639 7.33013 0.775402 7.33176 0.761538 7.33459C0.742428 7.33817 0.723808 7.34295 0.705081 7.34763C0.69496 7.35024 0.68484 7.35252 0.674847 7.35545C0.654617 7.36132 0.634877 7.36839 0.615275 7.37556C0.606776 7.3785 0.598287 7.38143 0.589915 7.3848C0.570559 7.39263 0.551693 7.40121 0.532956 7.41024C0.524339 7.41448 0.515477 7.41839 0.506977 7.42295C0.489989 7.43165 0.473385 7.44132 0.457015 7.45121C0.446905 7.4573 0.436784 7.46317 0.427048 7.46958C0.412928 7.47871 0.39932 7.4886 0.385701 7.4985C0.374333 7.50676 0.362965 7.51502 0.35198 7.52382C0.340484 7.53317 0.329371 7.54284 0.318376 7.55263C0.30639 7.56317 0.29452 7.5736 0.283152 7.5848C0.273287 7.59436 0.263924 7.60469 0.25455 7.61469C0.24331 7.62675 0.232069 7.63871 0.22133 7.65132C0.211839 7.66262 0.202966 7.67469 0.193848 7.68643C0.184602 7.69849 0.175366 7.71023 0.166622 7.72295C0.156256 7.73795 0.146882 7.7536 0.13739 7.76925C0.131269 7.77947 0.124774 7.78936 0.118908 7.7998C0.107668 7.82001 0.097676 7.84099 0.0878114 7.86208C0.08506 7.86806 0.0816899 7.87349 0.0790665 7.87958C0.0785652 7.88077 0.0783089 7.88197 0.0778184 7.88295C0.0678258 7.9061 0.0592087 7.92979 0.0510824 7.9536C0.0489601 7.95969 0.0463373 7.96577 0.044343 7.97186C0.0382216 7.99131 0.0333476 8.01132 0.0284739 8.03132C0.0257332 8.04229 0.0223528 8.05327 0.0199853 8.06436C0.0173618 8.07664 0.0159857 8.08925 0.0138635 8.10164C0.0106215 8.12066 0.00712349 8.13968 0.00511857 8.15892C0.00437206 8.16642 0.00437273 8.17392 0.00374353 8.18142C0.00174927 8.20555 0.00024505 8.22968 0.00012774 8.25381C0.00012774 8.25523 0 8.25642 0 8.25794V26.6136C0 26.9802 0.21234 27.3135 0.543951 27.4672L16.6072 34.9132C16.6072 34.9132 16.6095 34.9138 16.6104 34.9145C16.6174 34.9175 16.6243 34.9198 16.6312 34.9226C16.6625 34.9361 16.6938 34.9478 16.7256 34.9576C16.7367 34.961 16.748 34.9639 16.7593 34.9669C16.7897 34.975 16.8201 34.9815 16.8505 34.9865C16.8599 34.988 16.8693 34.9899 16.8787 34.9912C16.9189 34.9964 16.9594 35 16.9995 35C17.0034 35 17.0073 34.9992 17.0113 34.9991C17.0466 34.9987 17.082 34.9961 17.1172 34.9916C17.1302 34.99 17.1429 34.9874 17.1557 34.9853C17.183 34.9807 17.2103 34.9749 17.2373 34.9677C17.2499 34.9645 17.2622 34.9612 17.2746 34.9574C17.3045 34.9482 17.3337 34.9373 17.3628 34.925C17.3709 34.9216 17.3791 34.9189 17.3871 34.9152C17.389 34.9143 17.391 34.9138 17.3928 34.9129L33.456 27.4671C33.7877 27.3134 34 26.9801 34 26.6135V8.25751C34 8.21707 33.9966 8.17729 33.9916 8.13816ZM17.9367 32.5894V19.9652C17.9367 19.4458 17.5174 19.025 16.9999 19.025C16.4825 19.025 16.0631 19.4458 16.0631 19.9652V32.5895L1.87341 26.012V9.69771L16.6231 16.2032C16.7432 16.2562 16.8715 16.2826 17 16.2826C17.1286 16.2826 17.2568 16.2562 17.377 16.2032L32.1264 9.69771V26.0119L17.9367 32.5894Z" fill="white"/>
</svg>
